<svg xmlns="http://www.w3.org/2000/svg" width="114" height="37" viewBox="0 0 114 37">
    <g fill="none" fill-rule="evenodd">
        <g>
            <g>
                <g>
                    <g>
                        <path stroke="#FFF" stroke-width="2.5" d="M66.703 30.086l46.525-.245M80.403 35.3l33.416.06" transform="translate(-30 -21) translate(30 21)"/>
                        <path fill="#FFF" fill-rule="nonzero" d="M16.31.1l-.925 5.217h-5.008l-3.254 18.61H1.986L5.24 5.316H.2L1.125.1H16.31zm14.927 0h5.105l-4.148 23.826H27.09l1.69-9.626h-6.795l-1.69 9.626H15.19L19.338.101h5.104l-1.69 9.627h6.794L31.237.1zM53.12 7.475c-.51 2.8-2.457 5.248-4.945 6.504l4.083 9.948h-5.902l-3.509-9.015h-.702l-1.563 9.015h-5.168L39.56.101h7.497c4.052 0 6.764 3.316 6.062 7.373zm-9.316-2.157l-.765 4.378h2.36c1.245 0 2.361-.933 2.584-2.221.192-1.191-.606-2.157-1.818-2.157h-2.36zm11.162 18.61L59.113.1h5.104L60.07 23.926h-5.105zM88.077.1L75.316 23.926H71.55L67.085.101h5.55L75.093 14.3 82.494.1h5.583zm13.236 18.61l-.894 5.215H86.83L90.976.101h13.59l-.924 5.216h-8.423l-.765 4.41h7.848l-.766 4.573h-7.848l-.798 4.41h8.423z" transform="translate(-30 -21) translate(30 21)"/>
                    </g>
                </g>
            </g>
        </g>
    </g>
</svg>