<svg xmlns="http://www.w3.org/2000/svg" viewBox="0 0 24 24" height="24" width="24"><symbol id="location-outline" width="24" height="24" viewBox="0 0 24 24" xmlns="http://www.w3.org/2000/svg"><path d="M12 21C10.7369 19.9226 9.56619 18.7415 8.5 17.469C6.9 15.558 5 12.712 5 9.99997C4.99931 8.61493 5.40951 7.26082 6.17869 6.109C6.94788 4.95718 8.04147 4.05943 9.32107 3.52937C10.6007 2.99931 12.0087 2.86076 13.3671 3.13126C14.7255 3.40176 15.9731 4.06915 16.952 5.04897C17.6038 5.69783 18.1203 6.46951 18.4719 7.31934C18.8234 8.16918 19.0029 9.0803 19 9.99997C19 12.712 17.1 15.558 15.5 17.469C14.4338 18.7415 13.2631 19.9226 12 21ZM12 4.99997C10.6744 5.00156 9.40356 5.52885 8.46622 6.46619C7.52888 7.40353 7.00159 8.67438 7 9.99997C7 11.166 7.527 13.185 10.035 16.186C10.6531 16.924 11.309 17.6296 12 18.3C12.691 17.6304 13.3472 16.9258 13.966 16.189C16.473 13.184 17 11.165 17 9.99997C16.9984 8.67438 16.4711 7.40353 15.5338 6.46619C14.5964 5.52885 13.3256 5.00156 12 4.99997ZM12 13C11.2044 13 10.4413 12.6839 9.87868 12.1213C9.31607 11.5587 9 10.7956 9 9.99997C9 9.20432 9.31607 8.44126 9.87868 7.87865C10.4413 7.31604 11.2044 6.99997 12 6.99997C12.7957 6.99997 13.5587 7.31604 14.1213 7.87865C14.6839 8.44126 15 9.20432 15 9.99997C15 10.7956 14.6839 11.5587 14.1213 12.1213C13.5587 12.6839 12.7957 13 12 13Z"/></symbol><use xlink:href="#location-outline" xmlns:xlink="http://www.w3.org/1999/xlink"/></svg>